#!OML:ASF G:\JayActor3\Patient Classification 1\Patient 1\Session 2\male.ASF
:FULLY-SPECIFIED
:DEGREES
3264
root 18.7475 15.5935 -5.30001 894.01 -73.0963 -175.59
lowerback 14.9387 4.35008 9.51094
upperback 11.646 5.82475 -3.54639
thorax 5.76406 3.41217 -9.74557
lowerneck 2.12478 20.1491 11.7698
upperneck -3.84143 27.2356 -16.4544
head 2.35971 13.7327 -5.33296
rclavicle 2.18663e-014 -4.23411e-014
rhumerus -47.4114 -9.50009 -80.0735
rradius 54.0803
rwrist 8.66142
rhand -42.8066 9.90399
rfingers 7.12502
rthumb -15.6721 -19.4813
lclavicle 2.18663e-014 -4.23411e-014
lhumerus 12.9331 -31.6514 76.9597
lradius 96.8876
lwrist 5.61163
lhand -24.0656 11.3635
lfingers 7.12502
lthumb 2.41403 41.3295
rfemur -23.3288 -7.44976 33.0335
rtibia 57.1885
rfoot -39.7098 -21.5592
rtoes 21.6351
lfemur -49.2493 18.5036 -26.3488
ltibia 43.4501
lfoot 3.0791 12.2867
ltoes -16.6552
3265
root 18.6965 15.5949 -5.32361 893.573 -73.4434 -175.214
lowerback 14.7748 4.38181 9.50458
upperback 11.6094 5.86774 -3.52142
thorax 5.81505 3.43802 -9.70296
lowerneck 2.13375 20.1597 11.7663
upperneck -3.84999 27.2474 -16.4216
head 2.35179 13.7385 -5.32459
rclavicle -3.78685e-014 6.63941e-014
rhumerus -47.5096 -9.55825 -79.8936
rradius 54.1153
rwrist 8.62273
rhand -42.8508 9.90537
rfingers 7.12502
rthumb -15.7147 -19.4766
lclavicle -3.78685e-014 6.63941e-014
lhumerus 12.9081 -31.8393 76.9496
lradius 96.7862
lwrist 5.61081
lhand -24.0801 11.38
lfingers 7.12502
lthumb 2.4 41.3462
rfemur -22.9678 -7.5967 33.1194
rtibia 57.0385
rfoot -39.907 -21.7254
rtoes 21.5971
lfemur -49.1799 19.1305 -27.1756
ltibia 42.1375
lfoot 3.9384 11.8667
ltoes -16.8565
3266
root 18.6455 15.5968 -5.3467 893.13 -73.7854 -174.828
lowerback 14.6149 4.41246 9.49844
upperback 11.5711 5.90958 -3.49909
thorax 5.86226 3.46311 -9.66365
lowerneck 2.15099 20.1704 11.765
upperneck -3.86656 27.2594 -16.3934
head 2.34125 13.745 -5.31896
rclavicle -3.45885e-014 3.69739e-014
rhumerus -47.6093 -9.61172 -79.7219
rradius 54.1479
rwrist 8.56405
rhand -42.8947 9.92435
rfingers 7.12502
rthumb -15.7569 -19.4543
lclavicle -3.45885e-014 3.69739e-014
lhumerus 12.8967 -32.0205 76.9337
lradius 96.6897
lwrist 5.60009
lhand -24.0782 11.3992
lfingers 7.12502
lthumb 2.4018 41.3654
rfemur -22.6079 -7.75455 33.2029
rtibia 56.8788
rfoot -40.1006 -21.8814
rtoes 21.5559
lfemur -49.1124 19.7589 -28.0046
ltibia 40.8767
lfoot 4.89492 11.4993
ltoes -16.9044
3267
root 18.5947 15.5992 -5.36915 892.672 -74.1231 -174.421
lowerback 14.458 4.44122 9.49623
upperback 11.5317 5.94946 -3.47838
thorax 5.90699 3.48736 -9.62848
lowerneck 2.17323 20.182 11.7636
upperneck -3.88677 27.2728 -16.3681
head 2.32944 13.7526 -5.3146
rclavicle -6.04305e-014 4.29375e-014
rhumerus -47.7073 -9.65776 -79.5595
rradius 54.1749
rwrist 8.48936
rhand -42.933 9.94878
rfingers 7.12502
rthumb -15.7938 -19.4269
lclavicle -6.04305e-014 4.29375e-014
lhumerus 12.899 -32.195 76.9143
lradius 96.5969
lwrist 5.58228
lhand -24.0508 11.4356
lfingers 7.12502
lthumb 2.42827 41.4015
rfemur -22.2494 -7.92119 33.2858
rtibia 56.7092
rfoot -40.2895 -22.0255
rtoes 21.5183
lfemur -49.0402 20.3738 -28.8223
ltibia 39.6584
lfoot 5.91838 11.217
ltoes -16.7253
3268
root 18.544 15.6017 -5.39084 892.181 -74.4612 -173.979
lowerback 14.3101 4.46463 9.50459
upperback 11.4896 5.98401 -3.45948
thorax 5.94459 3.50929 -9.60191
lowerneck 2.20605 20.1934 11.7662
upperneck -3.90826 27.287 -16.3464
head 2.3168 13.761 -5.31267
rclavicle -5.82439e-014 3.51849e-014
rhumerus -47.8054 -9.69458 -79.4084
rradius 54.1936
rwrist 8.41069
rhand -42.9679 9.95645
rfingers 7.12502
rthumb -15.8275 -19.4166
lclavicle -5.82439e-014 3.51849e-014
lhumerus 12.9105 -32.3626 76.8926
lradius 96.5068
lwrist 5.56205
lhand -24.0041 11.4863
lfingers 7.12502
lthumb 2.47339 41.4517
rfemur -21.8903 -8.09752 33.3717
rtibia 56.5317
rfoot -40.4781 -22.1581
rtoes 21.4907
lfemur -48.9578 20.9651 -29.6214
ltibia 38.4795
lfoot 6.98664 11.0484
ltoes -16.412
